<svg xmlns="http://www.w3.org/2000/svg" xmlns:xlink="http://www.w3.org/1999/xlink" width="500" zoomAndPan="magnify" viewBox="0 0 375 374.999991" height="500" preserveAspectRatio="xMidYMid meet" version="1.0"><defs><clipPath id="2a6c420580"><path d="M 23.878906 23.878906 L 350.878906 23.878906 L 350.878906 350.878906 L 23.878906 350.878906 Z M 23.878906 23.878906 " clip-rule="nonzero"/></clipPath></defs><g clip-path="url(#2a6c420580)"><path fill="#0d4d54" d="M 350.878906 50.476562 L 350.878906 324.28125 C 350.878906 338.972656 338.972656 350.878906 324.28125 350.878906 L 50.476562 350.878906 C 35.789062 350.878906 23.878906 338.972656 23.878906 324.28125 L 23.878906 124.214844 L 142.554688 124.214844 L 142.554688 124.125 L 202.335938 124.125 C 223.4375 124.125 225.199219 133.636719 225.199219 140.054688 C 225.199219 143.804688 229.011719 157.839844 202.335938 157.839844 L 84.496094 157.839844 L 84.496094 304.128906 L 142.554688 304.128906 L 142.554688 210.097656 L 207.347656 210.097656 C 221.277344 210.097656 231.878906 216.46875 231.878906 229.894531 C 231.878906 247.328125 210.753906 249.699219 207.347656 249.699219 L 183.484375 249.699219 L 183.484375 304.128906 L 198.523438 304.128906 C 225.453125 304.128906 246.878906 299.015625 262.195312 288.929688 C 280.824219 276.671875 290.261719 257.535156 290.261719 232.074219 C 290.261719 222.550781 286.832031 211.144531 281.082031 201.550781 C 276.464844 193.851562 270.5625 187.566406 263.636719 182.910156 C 268.429688 179.179688 272.425781 174.84375 275.578125 169.933594 C 280.878906 161.664062 283.578125 152.183594 283.578125 141.761719 C 283.578125 97.222656 251.777344 70.628906 198.523438 70.628906 L 23.878906 70.628906 L 23.878906 50.476562 C 23.878906 35.785156 35.789062 23.878906 50.476562 23.878906 L 324.28125 23.878906 C 338.972656 23.878906 350.878906 35.785156 350.878906 50.476562 " fill-opacity="1" fill-rule="nonzero"/></g></svg>