<svg xmlns="http://www.w3.org/2000/svg" xmlns:xlink="http://www.w3.org/1999/xlink" width="500" zoomAndPan="magnify" viewBox="0 0 375 374.999991" height="500" preserveAspectRatio="xMidYMid meet" version="1.0"><defs><clipPath id="d71a190af3"><path d="M 0 15.3125 L 375 15.3125 L 375 348.71875 L 0 348.71875 Z M 0 15.3125 " clip-rule="nonzero"/></clipPath><clipPath id="61ebc80ef4"><path d="M 17.25 15.3125 L 357.75 15.3125 C 362.324219 15.3125 366.710938 17.128906 369.949219 20.363281 C 373.183594 23.597656 375 27.988281 375 32.5625 L 375 331.46875 C 375 336.046875 373.183594 340.433594 369.949219 343.667969 C 366.710938 346.902344 362.324219 348.71875 357.75 348.71875 L 17.25 348.71875 C 12.675781 348.71875 8.289062 346.902344 5.050781 343.667969 C 1.816406 340.433594 0 336.046875 0 331.46875 L 0 32.5625 C 0 27.988281 1.816406 23.597656 5.050781 20.363281 C 8.289062 17.128906 12.675781 15.3125 17.25 15.3125 Z M 17.25 15.3125 " clip-rule="nonzero"/></clipPath></defs><g clip-path="url(#d71a190af3)"><g clip-path="url(#61ebc80ef4)"><path fill="#ffffff" d="M 0 15.3125 L 375 15.3125 L 375 348.71875 L 0 348.71875 Z M 0 15.3125 " fill-opacity="1" fill-rule="nonzero"/></g></g><path fill="#0d4d54" d="M 375 30.5 L 375 344.5 C 375 361.34375 361.34375 375 344.5 375 L 30.5 375 C 13.65625 375 0 361.34375 0 344.5 L 0 115.066406 L 136.09375 115.066406 L 136.09375 114.960938 L 204.652344 114.960938 C 228.851562 114.960938 230.871094 125.867188 230.871094 133.230469 C 230.871094 137.527344 235.246094 153.625 204.652344 153.625 L 69.515625 153.625 L 69.515625 321.386719 L 136.09375 321.386719 L 136.09375 213.550781 L 210.398438 213.550781 C 226.375 213.550781 238.535156 220.859375 238.535156 236.257812 C 238.535156 256.25 214.308594 258.96875 210.398438 258.96875 L 183.035156 258.96875 L 183.035156 321.386719 L 200.277344 321.386719 C 231.164062 321.386719 255.734375 315.523438 273.296875 303.953125 C 294.660156 289.898438 305.484375 267.953125 305.484375 238.753906 C 305.484375 227.835938 301.550781 214.75 294.960938 203.75 C 289.660156 194.921875 282.894531 187.714844 274.953125 182.371094 C 280.449219 178.097656 285.027344 173.125 288.644531 167.492188 C 294.726562 158.011719 297.820312 147.136719 297.820312 135.1875 C 297.820312 84.109375 261.351562 53.613281 200.277344 53.613281 L 0 53.613281 L 0 30.5 C 0 13.65625 13.65625 0 30.5 0 L 344.5 0 C 361.34375 0 375 13.65625 375 30.5 " fill-opacity="1" fill-rule="nonzero"/></svg>