<svg xmlns="http://www.w3.org/2000/svg" xmlns:xlink="http://www.w3.org/1999/xlink" width="500" zoomAndPan="magnify" viewBox="0 0 375 374.999991" height="500" preserveAspectRatio="xMidYMid meet" version="1.0"><defs><g/><clipPath id="38616d250d"><path d="M 9.050781 74.914062 L 225.800781 74.914062 L 225.800781 291.664062 L 9.050781 291.664062 Z M 9.050781 74.914062 " clip-rule="nonzero"/></clipPath></defs><g clip-path="url(#38616d250d)"><path fill="#0d4d54" d="M 225.800781 92.546875 L 225.800781 274.035156 C 225.800781 283.773438 217.910156 291.664062 208.171875 291.664062 L 26.679688 291.664062 C 16.945312 291.664062 9.050781 283.773438 9.050781 274.035156 L 9.050781 141.421875 L 87.714844 141.421875 L 87.714844 141.363281 L 127.34375 141.363281 C 141.328125 141.363281 142.496094 147.667969 142.496094 151.921875 C 142.496094 154.40625 145.023438 163.710938 127.34375 163.710938 L 49.230469 163.710938 L 49.230469 260.679688 L 87.714844 260.679688 L 87.714844 198.347656 L 130.664062 198.347656 C 139.894531 198.347656 146.925781 202.570312 146.925781 211.472656 C 146.925781 223.027344 132.921875 224.601562 130.664062 224.601562 L 114.847656 224.601562 L 114.847656 260.679688 L 124.8125 260.679688 C 142.664062 260.679688 156.867188 257.289062 167.019531 250.601562 C 179.367188 242.476562 185.621094 229.792969 185.621094 212.917969 C 185.621094 206.605469 183.347656 199.042969 179.539062 192.683594 C 176.476562 187.582031 172.5625 183.414062 167.976562 180.328125 C 171.152344 177.855469 173.796875 174.980469 175.890625 171.726562 C 179.402344 166.246094 181.191406 159.960938 181.191406 153.054688 C 181.191406 123.53125 160.113281 105.902344 124.8125 105.902344 L 9.050781 105.902344 L 9.050781 92.546875 C 9.050781 82.808594 16.945312 74.914062 26.679688 74.914062 L 208.171875 74.914062 C 217.910156 74.914062 225.800781 82.808594 225.800781 92.546875 " fill-opacity="1" fill-rule="nonzero"/></g><g fill="#0d4d54" fill-opacity="1"><g transform="translate(232.030093, 239.712428)"><g><path d="M 1.421875 0 L 1.421875 -40.671875 L 9.28125 -40.671875 L 9.28125 0 Z M 1.421875 0 "/></g></g></g><g fill="#0d4d54" fill-opacity="1"><g transform="translate(242.775791, 239.712428)"><g><path d="M 1.796875 0 L 1.796875 -40.671875 L 18.078125 -40.671875 L 18.078125 -32.765625 L 9.984375 -32.765625 L 9.984375 -26.28125 L 17.65625 -26.28125 L 17.65625 -18.46875 L 9.984375 -18.46875 L 9.984375 0 Z M 1.796875 0 "/></g></g></g><g fill="#0d4d54" fill-opacity="1"><g transform="translate(261.663596, 239.712428)"><g><path d="M 11.5 0.375 C 8.21875 0.375 5.722656 -0.625 4.015625 -2.625 C 2.316406 -4.632812 1.46875 -7.453125 1.46875 -11.078125 L 1.46875 -30.4375 C 1.46875 -33.945312 2.316406 -36.59375 4.015625 -38.375 C 5.722656 -40.15625 8.21875 -41.046875 11.5 -41.046875 C 14.78125 -41.046875 17.273438 -40.15625 18.984375 -38.375 C 20.691406 -36.59375 21.546875 -33.945312 21.546875 -30.4375 L 21.546875 -11.078125 C 21.546875 -7.421875 20.691406 -4.597656 18.984375 -2.609375 C 17.273438 -0.617188 14.78125 0.375 11.5 0.375 Z M 11.5 -7.09375 C 12.226562 -7.09375 12.71875 -7.410156 12.96875 -8.046875 C 13.21875 -8.679688 13.34375 -9.566406 13.34375 -10.703125 L 13.34375 -30.578125 C 13.34375 -31.460938 13.222656 -32.179688 12.984375 -32.734375 C 12.753906 -33.285156 12.273438 -33.5625 11.546875 -33.5625 C 10.191406 -33.5625 9.515625 -32.535156 9.515625 -30.484375 L 9.515625 -10.65625 C 9.515625 -9.488281 9.65625 -8.601562 9.9375 -8 C 10.226562 -7.394531 10.75 -7.09375 11.5 -7.09375 Z M 11.5 -7.09375 "/></g></g></g><g fill="#0d4d54" fill-opacity="1"><g transform="translate(284.669797, 239.712428)"><g><path d="M 11.21875 0.375 C 7.875 0.375 5.390625 -0.566406 3.765625 -2.453125 C 2.140625 -4.347656 1.328125 -7.160156 1.328125 -10.890625 L 1.328125 -40.671875 L 9.234375 -40.671875 L 9.234375 -11.21875 C 9.234375 -9.925781 9.359375 -8.914062 9.609375 -8.1875 C 9.859375 -7.457031 10.394531 -7.09375 11.21875 -7.09375 C 12.039062 -7.09375 12.578125 -7.445312 12.828125 -8.15625 C 13.078125 -8.875 13.203125 -9.894531 13.203125 -11.21875 L 13.203125 -40.671875 L 21.109375 -40.671875 L 21.109375 -10.890625 C 21.109375 -7.160156 20.296875 -4.347656 18.671875 -2.453125 C 17.046875 -0.566406 14.5625 0.375 11.21875 0.375 Z M 11.21875 0.375 "/></g></g></g><g fill="#0d4d54" fill-opacity="1"><g transform="translate(307.10794, 239.712428)"><g><path d="M 1.796875 0 L 1.796875 -40.671875 L 9.9375 -40.671875 L 9.9375 -6.90625 L 18.328125 -6.90625 L 18.328125 0 Z M 1.796875 0 "/></g></g></g><g fill="#0d4d54" fill-opacity="1"><g transform="translate(325.901076, 239.712428)"><g><path d="M 1.796875 0 L 1.796875 -40.671875 L 9.84375 -40.671875 L 9.84375 -24.375 L 13.640625 -40.671875 L 21.828125 -40.671875 L 17.28125 -22.0625 L 22.765625 0 L 14.34375 0 L 9.890625 -19.6875 L 9.890625 0 Z M 1.796875 0 "/></g></g></g><g fill="#0d4d54" fill-opacity="1"><g transform="translate(348.24455, 239.712428)"><g><path d="M 1.421875 0 L 1.421875 -40.671875 L 9.28125 -40.671875 L 9.28125 0 Z M 1.421875 0 "/></g></g></g><g fill="#0d4d54" fill-opacity="1"><g transform="translate(235.179769, 287.922716)"><g><path d="M 27.597656 0 L 25.160156 -27.152344 L 19.914062 -27.152344 L 14.3125 -9.460938 L 14.261719 -9.390625 L 14.207031 -9.460938 L 8.605469 -27.152344 L 3.34375 -27.152344 L 0.925781 0 L 6.792969 0 L 7.824219 -14.917969 L 12.625 0 L 16.003906 0 L 20.574219 -14.867188 L 21.710938 0 Z M 27.597656 0 "/></g></g></g><g fill="#0d4d54" fill-opacity="1"><g transform="translate(263.699418, 287.922716)"><g><path d="M 1.972656 0 L 15.503906 0 L 15.503906 -5.210938 L 7.804688 -5.210938 L 7.804688 -11.398438 L 14.386719 -11.398438 L 14.386719 -16.269531 L 7.804688 -16.269531 L 7.804688 -21.941406 L 15.363281 -21.941406 L 15.363281 -27.152344 L 1.972656 -27.152344 Z M 1.972656 0 "/></g></g></g><g fill="#0d4d54" fill-opacity="1"><g transform="translate(279.950639, 287.922716)"><g><path d="M 15.578125 0 L 21.890625 0 L 13.957031 -27.152344 L 8.304688 -27.152344 L 0.410156 0 L 6.453125 0 L 7.914062 -5.976562 L 14.136719 -5.976562 Z M 9.085938 -10.863281 L 10.9375 -18.457031 L 11.058594 -18.707031 L 11.113281 -18.457031 L 12.945312 -10.863281 Z M 9.085938 -10.863281 "/></g></g></g><g fill="#0d4d54" fill-opacity="1"><g transform="translate(302.247172, 287.922716)"><g><path d="M 1.992188 0 L 14.242188 0 L 14.242188 -5.191406 L 7.804688 -5.191406 L 7.804688 -27.152344 L 1.992188 -27.152344 Z M 1.992188 0 "/></g></g></g><g fill="#0d4d54" fill-opacity="1"><g transform="translate(316.987076, 287.922716)"><g><path d="M 8.375 0.695312 C 12.890625 0.695312 16.359375 -2.347656 16.359375 -7.71875 C 16.359375 -12.289062 13.53125 -14.171875 10.082031 -16.074219 C 7.839844 -17.320312 6.597656 -18.28125 6.597656 -19.988281 C 6.597656 -21.710938 7.574219 -22.707031 9.335938 -22.707031 C 11.097656 -22.707031 13.195312 -21.90625 14.972656 -20.609375 L 14.972656 -26.386719 C 12.910156 -27.292969 11.078125 -27.863281 9.015625 -27.863281 C 4.230469 -27.863281 0.871094 -25.109375 0.871094 -20.09375 C 0.871094 -15.628906 3.21875 -13.675781 6.542969 -11.859375 C 8.765625 -10.542969 10.527344 -9.460938 10.527344 -7.59375 C 10.527344 -5.707031 9.425781 -4.535156 7.824219 -4.535156 C 6.257812 -4.535156 3.199219 -5.742188 1.101562 -7.433594 L 1.121094 -1.351562 C 3.058594 -0.160156 5.617188 0.695312 8.375 0.695312 Z M 8.375 0.695312 "/></g></g></g></svg>